<?xml version="1.0" standalone="no"?>
<!DOCTYPE svg PUBLIC "-//W3C//DTD SVG 20010904//EN"
 "http://www.w3.org/TR/2001/REC-SVG-20010904/DTD/svg10.dtd">
<svg version="1.0" xmlns="http://www.w3.org/2000/svg"
 width="260.000000pt" height="260.000000pt" viewBox="0 0 260.000000 260.000000"
 preserveAspectRatio="xMidYMid meet">
<metadata>
Created by potrace 1.11, written by Peter Selinger 2001-2013
</metadata>
<g transform="translate(0.000000,260.000000) scale(0.100000,-0.100000)"
fill="#000000" stroke="none">
<path d="M1030 2314 c-318 -68 -557 -275 -658 -569 -30 -88 -40 -158 -40 -263
2 -260 120 -497 328 -657 278 -214 683 -240 982 -64 30 18 50 24 54 18 4 -6 9
-39 11 -73 3 -33 13 -73 22 -87 41 -67 367 -399 391 -399 22 0 111 65 140 102
l21 27 -53 58 c-80 89 -108 120 -202 225 -48 54 -102 106 -119 117 -18 11 -67
26 -110 34 -43 8 -80 17 -83 20 -2 2 8 12 23 22 40 25 143 132 181 186 49 73
99 178 122 260 26 93 33 266 15 364 -61 332 -332 603 -680 680 -62 14 -279 14
-345 -1z m348 -279 c160 -51 290 -160 357 -300 44 -92 57 -151 57 -256 -1
-180 -90 -350 -237 -454 -121 -85 -223 -116 -375 -111 -130 4 -210 28 -311 94
-315 206 -355 637 -83 892 91 85 206 141 317 157 23 3 43 6 45 8 11 10 167
-10 230 -30z"/>
<path d="M1185 1954 c-5 -1 -22 -5 -38 -8 -37 -9 -67 -40 -60 -64 3 -14 28
-28 81 -48 131 -47 207 -86 313 -159 71 -49 111 -46 124 8 11 42 -1 70 -52
121 -55 56 -145 108 -225 131 -54 15 -122 25 -143 19z"/>
</g>
</svg>
