<svg xmlns="http://www.w3.org/2000/svg" viewBox="0 0 320.01 48.13"><defs><style>.cls-1{fill:#00a99d;stroke:#00a99d;}.cls-1,.cls-2{stroke-miterlimit:10;stroke-width:2px;}.cls-2{fill:#ccc;stroke:#ccc;}</style></defs><title>Asset 3</title><g id="Layer_2" data-name="Layer 2"><g id="Layer_1-2" data-name="Layer 1"><polygon class="cls-1" points="39.73 46.05 25.41 38.67 11.21 46.29 13.79 30.38 2.15 19.22 18.09 16.77 25.11 2.26 32.35 16.66 48.34 18.84 36.88 30.19 39.73 46.05"/><polygon class="cls-1" points="107.11 46.05 92.78 38.67 78.58 46.29 81.17 30.38 69.55 19.22 85.47 16.77 92.5 2.26 99.75 16.66 115.72 18.84 104.27 30.19 107.11 46.05"/><polygon class="cls-1" points="174.5 46.05 160.18 38.67 145.97 46.29 148.56 30.38 136.93 19.22 152.85 16.77 159.88 2.26 167.13 16.66 183.09 18.84 171.65 30.19 174.5 46.05"/><polygon class="cls-2" points="241.88 46.05 227.56 38.67 213.35 46.29 215.94 30.38 204.31 19.22 220.25 16.77 227.25 2.26 234.51 16.66 250.49 18.84 239.03 30.19 241.88 46.05"/><polygon class="cls-2" points="309.26 46.05 294.94 38.67 280.74 46.29 283.32 30.38 271.69 19.22 287.63 16.77 294.64 2.26 301.89 16.66 317.87 18.84 306.42 30.19 309.26 46.05"/></g></g></svg>