<svg xmlns="http://www.w3.org/2000/svg" viewBox="0 0 321.11 39.86"><defs><style>.a{fill:#4d4d4d;}.b{fill:#00a99d;}.c{fill:none;stroke:#00a99d;stroke-miterlimit:10;stroke-width:5px;}</style></defs><title>Asset 1</title><path class="a" d="M.8,8.1V6.21H12V8.1a.77.77,0,0,1-.71.79L10,9.13l-.89.18-.34.06L14.59,29q.5,2.06.61,2.85a23.62,23.62,0,0,1,.65-2.73L23.13,7.22a1.69,1.69,0,0,1,.53-.71,1.35,1.35,0,0,1,.9-.34h1.2a1.41,1.41,0,0,1,1.41,1.05l7.26,21.91a19.41,19.41,0,0,1,.67,2.62q0-.21.12-.7t.12-.7q.19-1,.25-1.22L41.44,9.37q-.09,0-2.45-.43a.79.79,0,0,1-.71-.84V6.25H48.34V8.14a.79.79,0,0,1-.71.84l-2.19.35L36.6,37.75H32.8L25,13.69a8.83,8.83,0,0,1-.44-1.59c0,.09-.06.22-.11.4s-.08.31-.11.4a2.83,2.83,0,0,0-.08.41,2,2,0,0,1-.08.39L16.3,37.75H12.5L3.7,9.41Q2,9,1.51,8.89A.77.77,0,0,1,.8,8.1Z" transform="translate(-0.8 -5.77)"/><path class="a" d="M54.34,22a18.13,18.13,0,0,1,1.14-6.57,14.66,14.66,0,0,1,3.18-5.06,14.32,14.32,0,0,1,4.92-3.29,16.64,16.64,0,0,1,6.34-1.19,16.46,16.46,0,0,1,6.33,1.2,13.89,13.89,0,0,1,4.9,3.28,14.8,14.8,0,0,1,3.17,5.1A18.17,18.17,0,0,1,85.41,22l0,.09a18.21,18.21,0,0,1-1.09,6.48,14.89,14.89,0,0,1-3.17,5.13,14.1,14.1,0,0,1-4.86,3.3,16.43,16.43,0,0,1-6.33,1.23A16.6,16.6,0,0,1,63.58,37a13.94,13.94,0,0,1-4.92-3.27,14.77,14.77,0,0,1-3.18-5.09A18.3,18.3,0,0,1,54.34,22Zm4.32,0a16.64,16.64,0,0,0,.79,5.33,11.23,11.23,0,0,0,2.28,4,9.77,9.77,0,0,0,3.52,2.51,12.26,12.26,0,0,0,9.24,0A9.77,9.77,0,0,0,78,31.35a11.27,11.27,0,0,0,2.23-4A16.66,16.66,0,0,0,81,22h0a16.81,16.81,0,0,0-.79-5.38,11.66,11.66,0,0,0-2.19-4,9.65,9.65,0,0,0-3.52-2.49,11.92,11.92,0,0,0-4.66-.86,11.68,11.68,0,0,0-4.58.86,9.65,9.65,0,0,0-3.52,2.49,11.35,11.35,0,0,0-2.28,4A16.8,16.8,0,0,0,58.66,22Z" transform="translate(-0.8 -5.77)"/><path class="a" d="M91.88,37.71V35.81a.75.75,0,0,1,.64-.79l2.56-.53V9.4l-2.56-.55a.74.74,0,0,1-.64-.78V6.17h11.64a20.43,20.43,0,0,1,5.2.6,9.46,9.46,0,0,1,3.61,1.76,7.06,7.06,0,0,1,2.11,2.77A9.6,9.6,0,0,1,115.1,15a9.17,9.17,0,0,1-.54,3.09A9,9,0,0,1,113,20.7a8.22,8.22,0,0,1-2.43,2A12,12,0,0,1,107.35,24a4.26,4.26,0,0,1,1.42,1.3l6.81,9.3q2.26.36,2.47.43h0a.75.75,0,0,1,.67.79v1.93h-4.58a1.77,1.77,0,0,1-1.68-.92l-8.19-11.2a3.29,3.29,0,0,0-.79-.75,2.48,2.48,0,0,0-1.31-.26H99.31v9.86l2.45.53a.93.93,0,0,1,.5.29.74.74,0,0,1,.2.5v1.89H91.88Zm7.39-16.24h4a11.17,11.17,0,0,0,3.31-.43,6.7,6.7,0,0,0,2.36-1.33,5.5,5.5,0,0,0,1.46-1.93,6.41,6.41,0,0,0,.47-2.56A5.05,5.05,0,0,0,109,11q-1.8-1.42-5.5-1.42H99.27Z" transform="translate(-0.8 -5.77)"/><path class="a" d="M125.23,37.75V35.9a.77.77,0,0,1,.69-.84l2.47-.46V9.45a23.83,23.83,0,0,1-2.47-.52.77.77,0,0,1-.69-.84V6.25h14.54q7,0,11.19,4.3T155.24,22a17.68,17.68,0,0,1-1.14,6.46,15.18,15.18,0,0,1-3.15,5,15,15,0,0,1-11.19,4.32Zm7.48-3.42h7.09a10.49,10.49,0,0,0,8.12-3.25q3-3.27,3-9.07a15.53,15.53,0,0,0-.79-5.2,11.41,11.41,0,0,0-2.21-3.87,10.37,10.37,0,0,0-8.12-3.27H132.7Z" transform="translate(-0.8 -5.77)"/><path class="b" d="M161.82,36.48v-8H164a.81.81,0,0,1,.88.76q.08.37.21,2.18l.13,2a16.81,16.81,0,0,0,5.36,1.26,10.61,10.61,0,0,0,3.27-.45,5,5,0,0,0,2-1.19,5.48,5.48,0,0,0,1.68-4.22,4.24,4.24,0,0,0-2.39-3.9,10.77,10.77,0,0,0-2.37-1.06q-4.65-1.47-5.55-1.86a9,9,0,0,1-2.42-1.6,7.57,7.57,0,0,1-2.33-5.93A8.09,8.09,0,0,1,165,8.51a9.69,9.69,0,0,1,7-2.62,23.76,23.76,0,0,1,8.84,1.71v7.32h-2.11a.84.84,0,0,1-.92-.77s0-.16,0-.45l-.11-1.41-.16-2.12a19.55,19.55,0,0,0-5.21-.85,6.28,6.28,0,0,0-4.41,1.43,4.57,4.57,0,0,0-1.49,3.53,4.06,4.06,0,0,0,2.37,3.68,12.55,12.55,0,0,0,2.48,1.13q3.83,1.28,5.55,2h-.09a7.34,7.34,0,0,1,4.75,7.14,9.5,9.5,0,0,1-2.73,7,10.61,10.61,0,0,1-7.83,2.85,26.13,26.13,0,0,1-4.31-.38,34.5,34.5,0,0,1-3.52-.82Z" transform="translate(-0.8 -5.77)"/><path class="b" d="M187.37,22.1a16.13,16.13,0,0,1,4.4-11.69q4.36-4.52,11.71-4.52l-.09,0a33.08,33.08,0,0,1,10.05,2.09v7.56h-2.11a.88.88,0,0,1-1-.83,15.59,15.59,0,0,1-.31-2.07q-.08-.52-.16-1t-.14-.74a2.1,2.1,0,0,1-.06-.33,21.24,21.24,0,0,0-6.64-1.21,10.65,10.65,0,0,0-8.19,3.41,13.51,13.51,0,0,0-3.2,9.38q0,5.82,3.16,9.29a10,10,0,0,0,7.8,3.29,13,13,0,0,0,4.32-.56,11.93,11.93,0,0,0,4-2.5,1.15,1.15,0,0,1,.71-.37.9.9,0,0,1,.71.29l1.68,2.08q-4.16,4.48-11.67,4.48a14.09,14.09,0,0,1-10.89-4.46A16.36,16.36,0,0,1,187.37,22.1Z" transform="translate(-0.8 -5.77)"/><path class="b" d="M259,8.1V6.25h11V8.1a.79.79,0,0,1-.7.84q-.89.17-2.87.47V25.56a9.51,9.51,0,0,0,2.19,6.63,8.66,8.66,0,0,0,12.23,0A9.57,9.57,0,0,0,283,25.63V9.41q-2.15-.32-2.9-.47a.79.79,0,0,1-.71-.84V6.25h11V8.14a.79.79,0,0,1-.71.84l-2.49.47v16a12.88,12.88,0,0,1-3.35,9,13.37,13.37,0,0,1-18.36,0,12.72,12.72,0,0,1-3.4-9v-16q-2.06-.39-2.46-.52A.76.76,0,0,1,259,8.1Z" transform="translate(-0.8 -5.77)"/><path class="b" d="M296,13.19V6.25h26v6.94h-2.15q-.71,0-.84-.45a20.77,20.77,0,0,1-.43-3H311.1V34.59a2.54,2.54,0,0,1,.52.08q2.08.35,2.21.39.43.13.43.81v1.88H303.6V35.87a.82.82,0,0,1,.75-.89l1-.19,1.42-.26V9.67h-7.43a24.38,24.38,0,0,1-.41,3.07q-.13.45-.88.45Z" transform="translate(-0.8 -5.77)"/><circle class="c" cx="235.46" cy="15.94" r="13.44"/><path class="b" d="M237.63,13a4.47,4.47,0,0,0-2.77.21c-.43.21-.85.67-.68,1.12s.53.48.88.58a20.63,20.63,0,0,1,6.49,3.33c.62.47,1.69,1,2.11,0a2.22,2.22,0,0,0-.69-2.37A10,10,0,0,0,237.63,13Z" transform="translate(-0.8 -5.77)"/><path class="b" d="M256.08,43.21a8.31,8.31,0,0,1-2.44,2.24,1,1,0,0,1-.44.17,1.09,1.09,0,0,1-.78-.43q-3.16-3.21-6.13-6.61a2.73,2.73,0,0,1-.51-.73,3.83,3.83,0,0,1-.14-1.36,4.94,4.94,0,0,0-.81-2.55c.84,1.32,2.81.78,4.17,1.55A6.71,6.71,0,0,1,250.65,37C252.39,38.94,254.33,41.25,256.08,43.21Z" transform="translate(-0.8 -5.77)"/></svg>